/* XPM */
static char * bl_fo_xpm[] = {
"5 5 4 1",
" 	c #757575",
".	c #A7A7A7",
"+	c #B8B8B8",
"@	c #E7E7E7",
" .+@ ",
" .+@@",
" .+++",
" ....",
"     "};
