/* XPM */
static char * close_inactive_xpm[] = {
"17 18 38 1",
" 	c None",
".	c #F2F5F5",
"+	c #C9C9C9",
"@	c #B1B1B1",
"#	c #B2B2B2",
"$	c #AEAEAE",
"%	c #B0B0B0",
"&	c #ABABAB",
"*	c #E9E9E9",
"=	c #DADADA",
"-	c #D8D8D8",
";	c #E5E5E5",
">	c #B6B6B6",
",	c #ADADAD",
"'	c #DDDDDD",
")	c #CECECE",
"!	c #CFCFCF",
"~	c #D1D1D1",
"{	c #D7D7D7",
"]	c #AFAFAF",
"^	c #DBDBDB",
"/	c #D4D4D4",
"(	c #D3D3D3",
"_	c #D9D9D9",
":	c #B4B4B4",
"<	c #DCDCDC",
"[	c #DFDFDF",
"}	c #E2E2E2",
"|	c #E4E4E4",
"1	c #E3E3E3",
"2	c #DEDEDE",
"3	c #B3B3B3",
"4	c #E0E0E0",
"5	c #EBEBEB",
"6	c #EAEAEA",
"7	c #CACACA",
"8	c #C1C1C1",
"9	c #7E7E7E",
".................",
"+++++++++++++++++",
"+++++++++++++++++",
"+++++++++++++++++",
"++++@#$%$%##&++++",
"++++$*=-=--;>++++",
"++++,')!~!!{#++++",
"++++]^////(_:++++",
"++++$<<=<<^^#++++",
"++++][};|1;23++++",
"++++]456*55}#++++",
"++++%_^_=__<#++++",
"++++,>%#%#%:&++++",
"++++<555655*|++++",
"++++777777777++++",
"88888888888888888",
",,,,,,,,,,,,,,,,,",
"99999999999999999"};
