/* XPM */
static char * close_pressed_xpm[] = {
"17 18 71 1",
" 	c None",
".	c #F6F9FA",
"+	c #E1E0E0",
"@	c #DEDEDE",
"#	c #DDDDDD",
"$	c #D5D5D5",
"%	c #BCBCBC",
"&	c #B6B6B6",
"*	c #B7B7B7",
"=	c #B4B4B4",
"-	c #B5B5B5",
";	c #DBDBDB",
">	c #C5C5C5",
",	c #737373",
"'	c #777777",
")	c #747474",
"!	c #757575",
"~	c #767676",
"{	c #707070",
"]	c #C9C9C9",
"^	c #DADADA",
"/	c #C3C3C3",
"(	c #7C7C7C",
"_	c #BBBBBB",
":	c #A9A9A9",
"<	c #A8A8A8",
"[	c #BABABA",
"}	c #7E7E7E",
"|	c #BEBEBE",
"1	c #D9D9D9",
"2	c #BFBFBF",
"3	c #787878",
"4	c #9A9A9A",
"5	c #9B9B9B",
"6	c #999999",
"7	c #797979",
"8	c #C0C0C0",
"9	c #D7D7D7",
"0	c #AAAAAA",
"a	c #A3A3A3",
"b	c #A1A1A1",
"c	c #A2A2A2",
"d	c #ABABAB",
"e	c #7A7A7A",
"f	c #AEAEAE",
"g	c #ACACAC",
"h	c #AFAFAF",
"i	c #D4D4D4",
"j	c #B2B2B2",
"k	c #B9B9B9",
"l	c #B1B1B1",
"m	c #D2D2D2",
"n	c #C4C4C4",
"o	c #D0D0D0",
"p	c #BDBDBD",
"q	c #ADADAD",
"r	c #CECECE",
"s	c #6F6F6F",
"t	c #818181",
"u	c #7B7B7B",
"v	c #808080",
"w	c #6D6D6D",
"x	c #CCCCCC",
"y	c #D8D8D8",
"z	c #E0E0E0",
"A	c #EBEBEB",
"B	c #ECECEC",
"C	c #EAEAEA",
"D	c #E2E2E2",
"E	c #CACACA",
"F	c #C1C1C1",
".................",
"+++++++++++++++++",
"@@@@@@@@@@@@@@@@@",
"###$%&*=--&*%$###",
";;;>,')!~))~{];;;",
"^^^/(_:<<<:[}|^^^",
"11123<45464<78111",
"999230abcbbde2999",
"$$$|7fgggggh72$$$",
"iii|7jk[[[kle2iii",
"mmm|7&nn>n>*7|mmm",
"ooop7qddg00g7pooo",
"rrrpste77uevw|rrr",
"xxxyzABAABCBD9xxx",
"EEEEEEEEEEEEEEEEE",
"FFFFFFFFFFFFFFFFF",
"qqqqqqqqqqqqqqqqq",
"}}}}}}}}}}}}}}}}}"};
