/* XPM */
static char * close_prelight_xpm[] = {
"17 18 64 1",
" 	c None",
".	c #F6F9FA",
"+	c #E1E0E0",
"@	c #DEDEDE",
"#	c #DDDDDD",
"$	c #D5D5D5",
"%	c #BCBCBC",
"&	c #B6B6B6",
"*	c #B7B7B7",
"=	c #B4B4B4",
"-	c #B5B5B5",
";	c #DBDBDB",
">	c #C5C5C5",
",	c #737373",
"'	c #777777",
")	c #747474",
"!	c #757575",
"~	c #767676",
"{	c #707070",
"]	c #C9C9C9",
"^	c #DADADA",
"/	c #C3C3C3",
"(	c #7C7C7C",
"_	c #EEEEEE",
":	c #DCDCDC",
"<	c #EDEDED",
"[	c #7E7E7E",
"}	c #BEBEBE",
"|	c #D9D9D9",
"1	c #BFBFBF",
"2	c #787878",
"3	c #CDCDCD",
"4	c #CECECE",
"5	c #CCCCCC",
"6	c #797979",
"7	c #C0C0C0",
"8	c #D7D7D7",
"9	c #D6D6D6",
"0	c #D4D4D4",
"a	c #7A7A7A",
"b	c #E1E1E1",
"c	c #DFDFDF",
"d	c #E2E2E2",
"e	c #E5E5E5",
"f	c #ECECEC",
"g	c #E4E4E4",
"h	c #D2D2D2",
"i	c #E9E9E9",
"j	c #F7F7F7",
"k	c #F8F8F8",
"l	c #EAEAEA",
"m	c #D0D0D0",
"n	c #BDBDBD",
"o	c #E0E0E0",
"p	c #6F6F6F",
"q	c #818181",
"r	c #7B7B7B",
"s	c #808080",
"t	c #6D6D6D",
"u	c #D8D8D8",
"v	c #EBEBEB",
"w	c #CACACA",
"x	c #C1C1C1",
"y	c #ADADAD",
".................",
"+++++++++++++++++",
"@@@@@@@@@@@@@@@@@",
"###$%&*=--&*%$###",
";;;>,')!~))~{];;;",
"^^^/(_:;;;:<[}^^^",
"|||12;34353;67|||",
"88812#90$00@a1888",
"$$$}6bcccccd61$$$",
"000}6ef<<<fga1000",
"hhh}6ijjkjkl6}hhh",
"mmmn6o@@c##c6nmmm",
"444npqa66rast}444",
"555uovfvvflfd8555",
"wwwwwwwwwwwwwwwww",
"xxxxxxxxxxxxxxxxx",
"yyyyyyyyyyyyyyyyy",
"[[[[[[[[[[[[[[[[["};
