/* XPM */
static char * btn_close_fo_xpm[] = {
"17 18 62 1",
" 	c None",
".	c #F6F9FA",
"+	c #E1E0E0",
"@	c #DEDEDE",
"#	c #DDDDDD",
"$	c #D5D5D5",
"%	c #BCBCBC",
"&	c #B6B6B6",
"*	c #B7B7B7",
"=	c #B4B4B4",
"-	c #B5B5B5",
";	c #DBDBDB",
">	c #C5C5C5",
",	c #737373",
"'	c #777777",
")	c #747474",
"!	c #757575",
"~	c #767676",
"{	c #707070",
"]	c #C9C9C9",
"^	c #DADADA",
"/	c #C3C3C3",
"(	c #7C7C7C",
"_	c #EAEAEA",
":	c #D4D4D4",
"<	c #D2D2D2",
"[	c #E9E9E9",
"}	c #7E7E7E",
"|	c #BEBEBE",
"1	c #D9D9D9",
"2	c #BFBFBF",
"3	c #787878",
"4	c #C1C1C1",
"5	c #C2C2C2",
"6	c #C0C0C0",
"7	c #797979",
"8	c #D7D7D7",
"9	c #CCCCCC",
"0	c #CACACA",
"a	c #CBCBCB",
"b	c #D6D6D6",
"c	c #7A7A7A",
"d	c #D8D8D8",
"e	c #DFDFDF",
"f	c #E8E8E8",
"g	c #E4E4E4",
"h	c #F6F6F6",
"i	c #F7F7F7",
"j	c #E5E5E5",
"k	c #D0D0D0",
"l	c #BDBDBD",
"m	c #CECECE",
"n	c #6F6F6F",
"o	c #818181",
"p	c #7B7B7B",
"q	c #808080",
"r	c #6D6D6D",
"s	c #E0E0E0",
"t	c #EBEBEB",
"u	c #ECECEC",
"v	c #E2E2E2",
"w	c #ADADAD",
".................",
"+++++++++++++++++",
"@@@@@@@@@@@@@@@@@",
"###$%&*=--&*%$###",
";;;>,')!~))~{];;;",
"^^^/(_:<<<:[}|^^^",
"11123<45464<76111",
"88823$90a00bc2888",
"$$$|7^d8ddd;72$$$",
":::|7ef[[[f@c2:::",
"<<<|7ghhihij7|<<<",
"kkkl71bb8$$d7lkkk",
"mmmlnoc77pcqr|mmm",
"999dstuttu_uv8999",
"00000000000000000",
"44444444444444444",
"wwwwwwwwwwwwwwwww",
"}}}}}}}}}}}}}}}}}"};
