/* XPM */
static char * hide_prelight_xpm[] = {
"17 18 67 1",
" 	c None",
".	c #F6F9FA",
"+	c #E1E0E0",
"@	c #DEDEDE",
"#	c #DDDDDD",
"$	c #D4D4D4",
"%	c #BDBDBD",
"&	c #B7B7B7",
"*	c #B6B6B6",
"=	c #B5B5B5",
"-	c #B4B4B4",
";	c #BFBFBF",
">	c #D3D3D3",
",	c #DBDBDB",
"'	c #C8C8C8",
")	c #6F6F6F",
"!	c #777777",
"~	c #747474",
"{	c #767676",
"]	c #787878",
"^	c #707070",
"/	c #DADADA",
"(	c #7C7C7C",
"_	c #EEEEEE",
":	c #DCDCDC",
"<	c #EDEDED",
"[	c #7E7E7E",
"}	c #D9D9D9",
"|	c #7A7A7A",
"1	c #CDCDCD",
"2	c #CCCCCC",
"3	c #C0C0C0",
"4	c #D7D7D7",
"5	c #717171",
"6	c #B3B3B3",
"7	c #AFAFAF",
"8	c #AEAEAE",
"9	c #727272",
"0	c #D5D5D5",
"a	c #D6D6D6",
"b	c #BEBEBE",
"c	c #6D6D6D",
"d	c #A9A9A9",
"e	c #AAAAAA",
"f	c #A8A8A8",
"g	c #ADADAD",
"h	c #ABABAB",
"i	c #A7A7A7",
"j	c #D2D2D2",
"k	c #797979",
"l	c #E9E9E9",
"m	c #F8F8F8",
"n	c #F7F7F7",
"o	c #EAEAEA",
"p	c #D0D0D0",
"q	c #7B7B7B",
"r	c #DFDFDF",
"s	c #CECECE",
"t	c #6E6E6E",
"u	c #818181",
"v	c #828282",
"w	c #6C6C6C",
"x	c #E2E2E2",
"y	c #EBEBEB",
"z	c #ECECEC",
"A	c #CACACA",
"B	c #C1C1C1",
".................",
"+++++++++++++++++",
"@@@@@@@@@@@@@@@@@",
"###$%&*===*-;>###",
",,,')!~{~~~]^',,,",
"///;(_,,:,,<[;///",
"}}};|,11121:!3}}}",
"444;567777869;444",
"000;!$$a>0>0]b000",
"$$$3cdefgehic;$$$",
"jjj%klmnnnno|%jjj",
"ppp;qrrr#@rr|bppp",
"sssbtuq|qqqvw;sss",
"222axyozzlzzxa222",
"AAAAAAAAAAAAAAAAA",
"BBBBBBBBBBBBBBBBB",
"ggggggggggggggggg",
"[[[[[[[[[[[[[[[[["};
