/* XPM */
static char * hide_pressed_xpm[] = {
"17 18 69 1",
" 	c None",
".	c #F6F9FA",
"+	c #E1E0E0",
"@	c #DEDEDE",
"#	c #DDDDDD",
"$	c #D4D4D4",
"%	c #BDBDBD",
"&	c #B7B7B7",
"*	c #B6B6B6",
"=	c #B5B5B5",
"-	c #B4B4B4",
";	c #BFBFBF",
">	c #D3D3D3",
",	c #DBDBDB",
"'	c #C8C8C8",
")	c #6F6F6F",
"!	c #777777",
"~	c #747474",
"{	c #767676",
"]	c #787878",
"^	c #707070",
"/	c #DADADA",
"(	c #7C7C7C",
"_	c #BBBBBB",
":	c #A8A8A8",
"<	c #A9A9A9",
"[	c #BABABA",
"}	c #7E7E7E",
"|	c #D9D9D9",
"1	c #7A7A7A",
"2	c #9A9A9A",
"3	c #999999",
"4	c #C0C0C0",
"5	c #D7D7D7",
"6	c #717171",
"7	c #808080",
"8	c #7B7B7B",
"9	c #727272",
"0	c #D5D5D5",
"a	c #A1A1A1",
"b	c #A3A3A3",
"c	c #A0A0A0",
"d	c #A2A2A2",
"e	c #BEBEBE",
"f	c #6D6D6D",
"g	c #757575",
"h	c #D2D2D2",
"i	c #797979",
"j	c #C5C5C5",
"k	c #C4C4C4",
"l	c #D0D0D0",
"m	c #ACACAC",
"n	c #AAAAAA",
"o	c #ABABAB",
"p	c #CECECE",
"q	c #6E6E6E",
"r	c #818181",
"s	c #828282",
"t	c #6C6C6C",
"u	c #CCCCCC",
"v	c #D6D6D6",
"w	c #E2E2E2",
"x	c #EBEBEB",
"y	c #EAEAEA",
"z	c #ECECEC",
"A	c #E9E9E9",
"B	c #CACACA",
"C	c #C1C1C1",
"D	c #ADADAD",
".................",
"+++++++++++++++++",
"@@@@@@@@@@@@@@@@@",
"###$%&*===*-;>###",
",,,')!~{~~~]^',,,",
"///;(_::<::[};///",
"|||;1:22232<!4|||",
"555;67((((879;555",
"000;!aabcdcd]e000",
"$$$4f{!g1!]~f;$$$",
"hhh%i*jkkkk&1%hhh",
"lll;8mmmnomm1elll",
"pppeqr81888st;ppp",
"uuuvwxyzzAzzwvuuu",
"BBBBBBBBBBBBBBBBB",
"CCCCCCCCCCCCCCCCC",
"DDDDDDDDDDDDDDDDD",
"}}}}}}}}}}}}}}}}}"};
