/* XPM */
static char * btn_min_un_xpm[] = {
"17 18 45 1",
" 	c None",
".	c #F2F5F5",
"+	c #C9C9C9",
"@	c #AEAEAE",
"#	c #B2B2B2",
"$	c #ADADAD",
"%	c #B1B1B1",
"&	c #AFAFAF",
"*	c #B0B0B0",
"=	c #B3B3B3",
"-	c #B4B4B4",
";	c #E5E5E5",
">	c #D9D9D9",
",	c #D3D3D3",
"'	c #D5D5D5",
")	c #D6D6D6",
"!	c #E4E4E4",
"~	c #CCCCCC",
"{	c #CDCDCD",
"]	c #CECECE",
"^	c #ACACAC",
"/	c #BBBBBB",
"(	c #BABABA",
"_	c #B8B8B8",
":	c #B9B9B9",
"<	c #D0D0D0",
"[	c #D2D2D2",
"}	c #D1D1D1",
"|	c #AAAAAA",
"1	c #B7B7B7",
"2	c #B6B6B6",
"3	c #A9A9A9",
"4	c #DCDCDC",
"5	c #E7E7E7",
"6	c #E6E6E6",
"7	c #DBDBDB",
"8	c #D7D7D7",
"9	c #ABABAB",
"0	c #E2E2E2",
"a	c #EBEBEB",
"b	c #EAEAEA",
"c	c #E1E1E1",
"d	c #CACACA",
"e	c #C1C1C1",
"f	c #7E7E7E",
".................",
"+++++++++++++++++",
"+++++++++++++++++",
"+++++++++++++++++",
"++++@#$%&*$=$++++",
"++++-;>,')>!=++++",
"++++&)~{]{~)%++++",
"++++^/(/_:(/^++++",
"++++#<[],}<]%++++",
"++++|11:212:3++++",
"++++*45;;6;7%++++",
"++++*8)'8)'8%++++",
"++++9=*%***-|++++",
"++++0aabaaabc++++",
"++++ddddddddd++++",
"eeeeeeeeeeeeeeeee",
"$$$$$$$$$$$$$$$$$",
"fffffffffffffffff"};
