/* XPM */
static char * btn_min_fo_xpm[] = {
"17 18 68 1",
" 	c None",
".	c #F6F9FA",
"+	c #E1E0E0",
"@	c #DEDEDE",
"#	c #DDDDDD",
"$	c #D4D4D4",
"%	c #BDBDBD",
"&	c #B7B7B7",
"*	c #B6B6B6",
"=	c #B5B5B5",
"-	c #B4B4B4",
";	c #BFBFBF",
">	c #D3D3D3",
",	c #DBDBDB",
"'	c #C8C8C8",
")	c #6F6F6F",
"!	c #777777",
"~	c #747474",
"{	c #767676",
"]	c #787878",
"^	c #707070",
"/	c #DADADA",
"(	c #7C7C7C",
"_	c #EAEAEA",
":	c #D2D2D2",
"<	c #E9E9E9",
"[	c #7E7E7E",
"}	c #D9D9D9",
"|	c #7A7A7A",
"1	c #C1C1C1",
"2	c #C0C0C0",
"3	c #D7D7D7",
"4	c #717171",
"5	c #A0A0A0",
"6	c #9B9B9B",
"7	c #9A9A9A",
"8	c #727272",
"9	c #D5D5D5",
"0	c #CACACA",
"a	c #CCCCCC",
"b	c #C9C9C9",
"c	c #CBCBCB",
"d	c #BEBEBE",
"e	c #6D6D6D",
"f	c #949494",
"g	c #959595",
"h	c #939393",
"i	c #999999",
"j	c #969696",
"k	c #929292",
"l	c #797979",
"m	c #E4E4E4",
"n	c #F7F7F7",
"o	c #F6F6F6",
"p	c #E5E5E5",
"q	c #D0D0D0",
"r	c #7B7B7B",
"s	c #D8D8D8",
"t	c #D6D6D6",
"u	c #CECECE",
"v	c #6E6E6E",
"w	c #818181",
"x	c #828282",
"y	c #6C6C6C",
"z	c #E2E2E2",
"A	c #EBEBEB",
"B	c #ECECEC",
"C	c #ADADAD",
".................",
"+++++++++++++++++",
"@@@@@@@@@@@@@@@@@",
"###$%&*===*-;>###",
",,,')!~{~~~]^',,,",
"///;(_::$>:<[;///",
"}}};|:11121$!2}}}",
"333;456666758;333",
"999;!00abcbc]d999",
"$$$2efghigjke;$$$",
":::%lmnoooop|%:::",
"qqq;rss39t3s|dqqq",
"uuudvwr|rrrxy;uuu",
"aaatzA_BB<BBztaaa",
"00000000000000000",
"11111111111111111",
"CCCCCCCCCCCCCCCCC",
"[[[[[[[[[[[[[[[[["};
