/* XPM */
static char * maximize_pressed_xpm[] = {
"16 18 77 1",
" 	c None",
".	c #F6F9FA",
"+	c #E1E0E0",
"@	c #DEDEDE",
"#	c #DDDDDD",
"$	c #D3D3D3",
"%	c #BCBCBC",
"&	c #B8B8B8",
"*	c #B5B5B5",
"=	c #B6B6B6",
"-	c #B7B7B7",
";	c #B4B4B4",
">	c #C3C3C3",
",	c #D4D4D4",
"'	c #DBDBDB",
")	c #C7C7C7",
"!	c #6D6D6D",
"~	c #767676",
"{	c #717171",
"]	c #757575",
"^	c #777777",
"/	c #7E7E7E",
"(	c #CACACA",
"_	c #DADADA",
":	c #BEBEBE",
"<	c #828282",
"[	c #A9A9A9",
"}	c #A7A7A7",
"|	c #9C9C9C",
"1	c #818181",
"2	c #A8A8A8",
"3	c #BDBDBD",
"4	c #C6C6C6",
"5	c #D9D9D9",
"6	c #C1C1C1",
"7	c #787878",
"8	c #999999",
"9	c #9A9A9A",
"0	c #909090",
"a	c #7C7C7C",
"b	c #989898",
"c	c #ABABAB",
"d	c #747474",
"e	c #C5C5C5",
"f	c #D7D7D7",
"g	c #A1A1A1",
"h	c #969696",
"i	c #7F7F7F",
"j	c #A0A0A0",
"k	c #ACACAC",
"l	c #C4C4C4",
"m	c #D5D5D5",
"n	c #ADADAD",
"o	c #9F9F9F",
"p	c #AFAFAF",
"q	c #BFBFBF",
"r	c #939393",
"s	c #BBBBBB",
"t	c #B0B0B0",
"u	c #D2D2D2",
"v	c #B3B3B3",
"w	c #C2C2C2",
"x	c #D0D0D0",
"y	c #AAAAAA",
"z	c #AEAEAE",
"A	c #CECECE",
"B	c #C0C0C0",
"C	c #6A6A6A",
"D	c #797979",
"E	c #7A7A7A",
"F	c #858585",
"G	c #CCCCCC",
"H	c #E1E1E1",
"I	c #EBEBEB",
"J	c #EAEAEA",
"K	c #ECECEC",
"L	c #E0E0E0",
"................",
"++++++++++++++++",
"@@@@@@@@@@@@@@@@",
"###$%&*=-*=;>,##",
"''')!~~~{{]^/(''",
"___:<&[}|123]4__",
"55567}890abcde55",
"fff:a[gghijk]lff",
"mmm3ankco<cp]lmm",
",,,q!]77^rst~l,,",
"uuu3a&lelllv]wuu",
"xxx%/kcyccczd>xx",
"AAABC1aDaEDFd>AA",
"GGGfHIJKJIIJL,GG",
"((((((((((((((((",
"6666666666666666",
"nnnnnnnnnnnnnnnn",
"////////////////"};
