/* XPM */
static char * btn_max_fo_xpm[] = {
"16 18 70 1",
" 	c None",
".	c #F6F9FA",
"+	c #E1E0E0",
"@	c #DEDEDE",
"#	c #DDDDDD",
"$	c #D3D3D3",
"%	c #BCBCBC",
"&	c #B8B8B8",
"*	c #B5B5B5",
"=	c #B6B6B6",
"-	c #B7B7B7",
";	c #B4B4B4",
">	c #C3C3C3",
",	c #D4D4D4",
"'	c #DBDBDB",
")	c #C7C7C7",
"!	c #6D6D6D",
"~	c #767676",
"{	c #717171",
"]	c #757575",
"^	c #777777",
"/	c #7E7E7E",
"(	c #CACACA",
"_	c #DADADA",
":	c #BEBEBE",
"<	c #828282",
"[	c #E6E6E6",
"}	c #D1D1D1",
"|	c #C4C4C4",
"1	c #A2A2A2",
"2	c #EDEDED",
"3	c #C6C6C6",
"4	c #D9D9D9",
"5	c #C1C1C1",
"6	c #787878",
"7	c #C0C0C0",
"8	c #9B9B9B",
"9	c #BFBFBF",
"0	c #D6D6D6",
"a	c #747474",
"b	c #C5C5C5",
"c	c #D7D7D7",
"d	c #7C7C7C",
"e	c #9F9F9F",
"f	c #C9C9C9",
"g	c #D5D5D5",
"h	c #BDBDBD",
"i	c #A3A3A3",
"j	c #939393",
"k	c #979797",
"l	c #969696",
"m	c #959595",
"n	c #EAEAEA",
"o	c #D2D2D2",
"p	c #F6F6F6",
"q	c #F7F7F7",
"r	c #E0E0E0",
"s	c #C2C2C2",
"t	c #D0D0D0",
"u	c #CECECE",
"v	c #6A6A6A",
"w	c #818181",
"x	c #797979",
"y	c #7A7A7A",
"z	c #858585",
"A	c #CCCCCC",
"B	c #E1E1E1",
"C	c #EBEBEB",
"D	c #ECECEC",
"E	c #ADADAD",
"................",
"++++++++++++++++",
"@@@@@@@@@@@@@@@@",
"###$%&*=-*=;>,##",
"''')!~~~{{]^/(''",
"___:<[,}|1$2]3__",
"44456}75*890ab44",
"ccc:d,((%efc]|cc",
"ggghd4c0)i0']|gg",
",,,9!jklm&n#~|,,",
"ooohd[pqpppr]soo",
"ttt%/c0g000_a>tt",
"uuu7vwdxdyxza>uu",
"AAAcBCnDnCCnr,AA",
"((((((((((((((((",
"5555555555555555",
"EEEEEEEEEEEEEEEE",
"////////////////"};
