/* XPM */
static char * btn_max_un_xpm[] = {
"16 18 47 1",
" 	c None",
".	c #F2F5F5",
"+	c #C9C9C9",
"@	c #AFAFAF",
"#	c #B0B0B0",
"$	c #ABABAB",
"%	c #B1B1B1",
"&	c #B6B6B6",
"*	c #E5E5E5",
"=	c #D6D6D6",
"-	c #CECECE",
";	c #BFBFBF",
">	c #D5D5D5",
",	c #E8E8E8",
"'	c #B2B2B2",
")	c #D4D4D4",
"!	c #CFCFCF",
"~	c #C5C5C5",
"{	c #B9B9B9",
"]	c #CDCDCD",
"^	c #D8D8D8",
"/	c #AEAEAE",
"(	c #D7D7D7",
"_	c #D1D1D1",
":	c #D2D2D2",
"<	c #CCCCCC",
"[	c #BCBCBC",
"}	c #D9D9D9",
"|	c #DADADA",
"1	c #BEBEBE",
"2	c #AAAAAA",
"3	c #B5B5B5",
"4	c #B7B7B7",
"5	c #C7C7C7",
"6	c #DFDFDF",
"7	c #DDDDDD",
"8	c #E6E6E6",
"9	c #DBDBDB",
"0	c #ADADAD",
"a	c #B3B3B3",
"b	c #E4E4E4",
"c	c #EBEBEB",
"d	c #EAEAEA",
"e	c #DEDEDE",
"f	c #CACACA",
"g	c #C1C1C1",
"h	c #7E7E7E",
"................",
"++++++++++++++++",
"++++++++++++++++",
"++++++++++++++++",
"++++@@##@$@%@+++",
"++++&*==-;>,@+++",
"++++')-!~{]^/+++",
"++++'(_:<[_}/+++",
"++++'^^|]1(}/+++",
"++++2343456}@+++",
"++++'78*8*890+++",
"++++%=>()(=(@+++",
"++++$a%@#@%a/+++",
"++++bccdcccde+++",
"+++ffffffffff+++",
"gggggggggggggggg",
"0000000000000000",
"hhhhhhhhhhhhhhhh"};
