/* XPM */
static char * maximize_prelight_xpm[] = {
"16 18 73 1",
" 	c None",
".	c #F6F9FA",
"+	c #E1E0E0",
"@	c #DEDEDE",
"#	c #DDDDDD",
"$	c #D3D3D3",
"%	c #BCBCBC",
"&	c #B8B8B8",
"*	c #B5B5B5",
"=	c #B6B6B6",
"-	c #B7B7B7",
";	c #B4B4B4",
">	c #C3C3C3",
",	c #D4D4D4",
"'	c #DBDBDB",
")	c #C7C7C7",
"!	c #6D6D6D",
"~	c #767676",
"{	c #717171",
"]	c #757575",
"^	c #777777",
"/	c #7E7E7E",
"(	c #CACACA",
"_	c #DADADA",
":	c #BEBEBE",
"<	c #828282",
"[	c #EBEBEB",
"}	c #DCDCDC",
"|	c #CFCFCF",
"1	c #F0F0F0",
"2	c #C6C6C6",
"3	c #D9D9D9",
"4	c #C1C1C1",
"5	c #787878",
"6	c #CCCCCC",
"7	c #CDCDCD",
"8	c #AFAFAF",
"9	c #CBCBCB",
"0	c #747474",
"a	c #C5C5C5",
"b	c #D7D7D7",
"c	c #7C7C7C",
"d	c #C9C9C9",
"e	c #B2B2B2",
"f	c #DFDFDF",
"g	c #C4C4C4",
"h	c #D5D5D5",
"i	c #BDBDBD",
"j	c #E0E0E0",
"k	c #D2D2D2",
"l	c #E2E2E2",
"m	c #BFBFBF",
"n	c #A8A8A8",
"o	c #ABABAB",
"p	c #AAAAAA",
"q	c #EEEEEE",
"r	c #E3E3E3",
"s	c #F7F7F7",
"t	c #F8F8F8",
"u	c #E6E6E6",
"v	c #C2C2C2",
"w	c #D0D0D0",
"x	c #E1E1E1",
"y	c #CECECE",
"z	c #C0C0C0",
"A	c #6A6A6A",
"B	c #818181",
"C	c #797979",
"D	c #7A7A7A",
"E	c #858585",
"F	c #EAEAEA",
"G	c #ECECEC",
"H	c #ADADAD",
"................",
"++++++++++++++++",
"@@@@@@@@@@@@@@@@",
"###$%&*=-*=;>,##",
"''')!~~~{{]^/(''",
"___:<[}_|;'1]2__",
"33345_67>89@0a33",
"bbb:c},,de$f]gbb",
"hhhicjf@k*@l]ghh",
",,,m!noop2qr~g,,",
"kkkic[stsssu]vkk",
"www%/f@#@@@x0>ww",
"yyyzABcCcDCE0>yy",
"666bx[FGF[[Fj,66",
"((((((((((((((((",
"4444444444444444",
"HHHHHHHHHHHHHHHH",
"////////////////"};
