/* XPM */
static char * btn_special_fo_xpm[] = {
"21 18 59 1",
" 	c None",
".	c #F6F9FA",
"+	c #E1E0E0",
"@	c #DEDEDE",
"#	c #DDDDDD",
"$	c #DBDBDB",
"%	c #DADADA",
"&	c #D8D8D8",
"*	c #D7D6D6",
"=	c #D6D6D6",
"-	c #D0CFD0",
";	c #AAA9A9",
">	c #959495",
",	c #959394",
"'	c #959494",
")	c #A9A8A9",
"!	c #CFCFCF",
"~	c #D9D9D9",
"{	c #C9C9C9",
"]	c #797979",
"^	c #A2A2A2",
"/	c #939393",
"(	c #929292",
"_	c #949494",
":	c #A3A3A3",
"<	c #C8C8C8",
"[	c #D7D7D7",
"}	c #C5C5C5",
"|	c #767676",
"1	c #BCBCBC",
"2	c #BDBDBD",
"3	c #BEBEBE",
"4	c #D2D2D2",
"5	c #777777",
"6	c #C4C4C4",
"7	c #D5D5D5",
"8	c #787878",
"9	c #C3C3C3",
"0	c #D4D4D4",
"a	c #C6C6C6",
"b	c #CACACA",
"c	c #CBCBCB",
"d	c #CCCCCC",
"e	c #747474",
"f	c #D0D0D0",
"g	c #C2C2C2",
"h	c #C1C1C1",
"i	c #C0C0C0",
"j	c #CECECE",
"k	c #7C7C7C",
"l	c #757575",
"m	c #7B7B7B",
"n	c #7A7A7A",
"o	c #DCDCDC",
"p	c #EBEBEB",
"q	c #ECECEC",
"r	c #EAEAEA",
"s	c #ADADAD",
"t	c #7E7E7E",
".....................",
"+++++++++++++++++++++",
"@@@@@@@@@@@@@@@@@@@@@",
"#####################",
"$$%&*============&%$$",
"%%-;>,>,,,,,,,>',)!%%",
"~~{]^//(///////_:]<~~",
"[[}|[12222222223456[[",
"776|}11111111111}8977",
"00a]<bcbcccccccb<|}00",
"4495{[&~&&&&&&[&de644",
"ff986ghiiiiiiiig}8gff",
"jjh]k|58||||||l5mngjj",
"dd0opqrrqqqqqqpqp@0dd",
"bbbbbbbbbbbbbbbbbbbbb",
"hhhhhhhhhhhhhhhhhhhhh",
"sssssssssssssssssssss",
"ttttttttttttttttttttt"};
