/* XPM */
static char * btn_special_un_xpm[] = {
"21 18 32 1",
" 	c None",
".	c #F2F5F5",
"+	c #C9C9C9",
"@	c #C2C2C2",
"#	c #C0C0C0",
"$	c #AFAFAF",
"%	c #C6C6C6",
"&	c #BFBFBF",
"*	c #BEBEBE",
"=	c #AEAEAE",
"-	c #DEDEDE",
";	c #D2D2D2",
">	c #D3D3D3",
",	c #D6D6D6",
"'	c #D4D4D4",
")	c #D1D1D1",
"!	c #CFCFCF",
"~	c #D8D8D8",
"{	c #D7D7D7",
"]	c #DBDBDB",
"^	c #DFDFDF",
"/	c #DDDDDD",
"(	c #D5D5D5",
"_	c #B0B0B0",
":	c #B3B3B3",
"<	c #E7E7E7",
"[	c #E6E6E6",
"}	c #DCDCDC",
"|	c #CACACA",
"1	c #C1C1C1",
"2	c #ADADAD",
"3	c #7E7E7E",
".....................",
"+++++++++++++++++++++",
"+++++++++++++++++++++",
"+++++++++++++++++++++",
"+++++++++++++++++++++",
"+++@#############@+++",
"+++$%&&&&*#*&&&&%$+++",
"+++=-;;;;>;>;;;;-$+++",
"+++$,'')>;!;>)'',$+++",
"+++$~{{~~~]~~~{{~$+++",
"+++$~^^-^/^/^-^^~$+++",
"+++$(;;>;;>;;>;;(_+++",
"+++_:___________:_+++",
"+++]<<<<[[[<<<[[[}+++",
"+++||||||||||||||||++",
"111111111111111111111",
"222222222222222222222",
"333333333333333333333"};
