/* XPM */
static char * menu_prelight_xpm[] = {
"21 18 59 1",
" 	c None",
".	c #F6F9FA",
"+	c #E1E0E0",
"@	c #DEDEDE",
"#	c #DDDDDD",
"$	c #DBDBDB",
"%	c #DADADA",
"&	c #D8D8D8",
"*	c #D7D6D6",
"=	c #D6D6D6",
"-	c #D0CFD0",
";	c #AAA9A9",
">	c #959495",
",	c #959394",
"'	c #959494",
")	c #A9A8A9",
"!	c #CFCFCF",
"~	c #D9D9D9",
"{	c #C9C9C9",
"]	c #797979",
"^	c #B4B4B4",
"/	c #A8A8A8",
"(	c #A7A7A7",
"_	c #A9A9A9",
":	c #B5B5B5",
"<	c #C8C8C8",
"[	c #D7D7D7",
"}	c #C5C5C5",
"|	c #767676",
"1	c #DFDFDF",
"2	c #CACACA",
"3	c #CBCBCB",
"4	c #777777",
"5	c #C4C4C4",
"6	c #D5D5D5",
"7	c #D0D0D0",
"8	c #787878",
"9	c #C3C3C3",
"0	c #D4D4D4",
"a	c #C6C6C6",
"b	c #D3D3D3",
"c	c #D2D2D2",
"d	c #E0E0E0",
"e	c #747474",
"f	c #CECECE",
"g	c #CDCDCD",
"h	c #CCCCCC",
"i	c #C2C2C2",
"j	c #C1C1C1",
"k	c #7C7C7C",
"l	c #757575",
"m	c #7B7B7B",
"n	c #7A7A7A",
"o	c #DCDCDC",
"p	c #EBEBEB",
"q	c #ECECEC",
"r	c #EAEAEA",
"s	c #ADADAD",
"t	c #7E7E7E",
".....................",
"+++++++++++++++++++++",
"@@@@@@@@@@@@@@@@@@@@@",
"#####################",
"$$%&*============&%$$",
"%%-;>,>,,,,,,,>',)!%%",
"~~{]^//(///////_:]<~~",
"[[}|1{2222222223$45[[",
"665|7{{{{{{{{{{{78966",
"00a]b06066666660b|}00",
"cc94b11d11111111=e5cc",
"7798!fghhhhhhhhf78i77",
"ffj]k|48||||||l4mniff",
"hh0opqrrqqqqqqpqp@0hh",
"222222222222222222222",
"jjjjjjjjjjjjjjjjjjjjj",
"sssssssssssssssssssss",
"ttttttttttttttttttttt"};
