/* XPM */
static char * menu_pressed_xpm[] = {
"21 18 65 1",
" 	c None",
".	c #F6F9FA",
"+	c #E1E0E0",
"@	c #DEDEDE",
"#	c #DDDDDD",
"$	c #DBDBDB",
"%	c #DADADA",
"&	c #D8D8D8",
"*	c #D7D6D6",
"=	c #D6D6D6",
"-	c #D0CFD0",
";	c #AAA9A9",
">	c #959495",
",	c #959394",
"'	c #959494",
")	c #A9A8A9",
"!	c #CFCFCF",
"~	c #D9D9D9",
"{	c #C9C9C9",
"]	c #797979",
"^	c #818181",
"/	c #757575",
"(	c #747474",
"_	c #767676",
":	c #828282",
"<	c #C8C8C8",
"[	c #D7D7D7",
"}	c #C5C5C5",
"|	c #ACACAC",
"1	c #969696",
"2	c #979797",
"3	c #989898",
"4	c #A8A8A8",
"5	c #777777",
"6	c #C4C4C4",
"7	c #D5D5D5",
"8	c #9D9D9D",
"9	c #787878",
"0	c #C3C3C3",
"a	c #D4D4D4",
"b	c #C6C6C6",
"c	c #A0A0A0",
"d	c #A1A1A1",
"e	c #A2A2A2",
"f	c #D2D2D2",
"g	c #ADADAD",
"h	c #A3A3A3",
"i	c #D0D0D0",
"j	c #9C9C9C",
"k	c #9B9B9B",
"l	c #9A9A9A",
"m	c #999999",
"n	c #C2C2C2",
"o	c #CECECE",
"p	c #C1C1C1",
"q	c #7C7C7C",
"r	c #7B7B7B",
"s	c #7A7A7A",
"t	c #CCCCCC",
"u	c #DCDCDC",
"v	c #EBEBEB",
"w	c #ECECEC",
"x	c #EAEAEA",
"y	c #CACACA",
"z	c #7E7E7E",
".....................",
"+++++++++++++++++++++",
"@@@@@@@@@@@@@@@@@@@@@",
"#####################",
"$$%&*============&%$$",
"%%-;>,>,,,,,,,>',)!%%",
"~~{]^//(///////_:]<~~",
"[[}_|12222222223456[[",
"776_81111111111189077",
"aab]cdedeeeeeeedc_}aa",
"ff05c||g||||||||h(6ff",
"ii09jklmmmmmmmmk89nii",
"oop]q_59______/5rsnoo",
"ttauvwxxwwwwwwvwv@att",
"yyyyyyyyyyyyyyyyyyyyy",
"ppppppppppppppppppppp",
"ggggggggggggggggggggg",
"zzzzzzzzzzzzzzzzzzzzz"};
