/* XPM */
static char * title_1_active_xpm[] = {
"2 19 20 1",
" 	c None",
".	c #8C8D8D",
"+	c #F2F4F5",
"@	c #E0DFE0",
"#	c #DEDEDE",
"$	c #DCDCDC",
"%	c #DBDBDB",
"&	c #DADADA",
"*	c #D8D8D8",
"=	c #D7D7D7",
"-	c #D5D5D5",
";	c #D4D4D4",
">	c #D2D2D2",
",	c #D0D0D0",
"'	c #CECECE",
")	c #CCCCCC",
"!	c #CACACA",
"~	c #C1C1C1",
"{	c #ADADAD",
"]	c #7E7E7E",
"..",
"++",
"@@",
"##",
"$$",
"%%",
"&&",
"**",
"==",
"--",
";;",
">>",
",,",
"''",
"))",
"!!",
"~~",
"{{",
"]]"};
