/* XPM */
static char * title_1_inactive_xpm[] = {
"2 19 7 1",
" 	c None",
".	c #8C8D8D",
"+	c #EAECEC",
"@	c #C9C9C9",
"#	c #C1C1C1",
"$	c #ADADAD",
"%	c #7E7E7E",
"..",
"++",
"@@",
"@@",
"@@",
"@@",
"@@",
"@@",
"@@",
"@@",
"@@",
"@@",
"@@",
"@@",
"@@",
"@@",
"##",
"$$",
"%%"};
