/* XPM */
static char * tl_un_xpm[] = {
"5 19 22 1",
" 	c #757575",
".	c #8C8D8D",
"+	c #E8E7E5",
"@	c #EAECEC",
"#	c #BFBAB9",
"$	c #C9C9C9",
"%	c #B9B9BA",
"&	c #B8B8B8",
"*	c #B9B9B9",
"=	c #B6B6B6",
"-	c #BAB6B5",
";	c #B9B5B6",
">	c #B8B6B8",
",	c #B9B7BA",
"'	c #B8B8BA",
")	c #B8B8B6",
"!	c #C1C1C1",
"~	c #AAAAA8",
"{	c #ADADAD",
"]	c #A6A6A6",
"^	c #DFDFDF",
"/	c #7E7E7E",
" ....",
" +@@@",
" #$$$",
" %$$$",
" &$$$",
" &$$$",
" *$$$",
" &$$$",
" =$$$",
" -$$$",
" ;$$$",
" ;$$$",
" >$$$",
" ,$$$",
" ,$$$",
" '$$$",
" )!!!",
" ~&&{",
" ]&^/"};
