/* XPM */
static char * tl_fo_xpm[] = {
"5 19 23 1",
" 	c #757575",
".	c #8C8D8D",
"+	c #DEE0E0",
"@	c #F2F4F5",
"#	c #A7A7A7",
"$	c #E0DFE0",
"%	c #DEDEDE",
"&	c #DCDCDC",
"*	c #DBDBDB",
"=	c #DADADA",
"-	c #D8D8D8",
";	c #D7D7D7",
">	c #D5D5D5",
",	c #D4D4D4",
"'	c #D2D2D2",
")	c #D0D0D0",
"!	c #CECECE",
"~	c #CCCCCC",
"{	c #CACACA",
"]	c #C1C1C1",
"^	c #B8B8B8",
"/	c #ADADAD",
"(	c #7E7E7E",
" ....",
" +@@@",
" #$$$",
" #%%%",
" #&&&",
" #***",
" #===",
" #---",
" #;;;",
" #>>>",
" #,,,",
" #'''",
" #)))",
" #!!!",
" #~~~",
" #{{{",
" #]]]",
" #^//",
" #^&("};
