/* XPM */
static char * tr_un_xpm[] = {
"5 19 23 1",
" 	c None",
".	c #8C8D8D",
"+	c #757575",
"@	c #EAECEC",
"#	c #E8E7E5",
"$	c #C9C9C9",
"%	c #BFBAB9",
"&	c #B9B9BA",
"*	c #B8B8B8",
"=	c #B9B9B9",
"-	c #B6B6B6",
";	c #BAB6B5",
">	c #B9B5B6",
",	c #B8B6B8",
"'	c #B9B7BA",
")	c #B8B8BA",
"!	c #C1C1C1",
"~	c #B8B8B6",
"{	c #ADADAD",
"]	c #AAAAA8",
"^	c #7E7E7E",
"/	c #DFDFDF",
"(	c #A6A6A6",
"....+",
"@@@#+",
"$$$%+",
"$$$&+",
"$$$*+",
"$$$*+",
"$$$=+",
"$$$*+",
"$$$-+",
"$$$;+",
"$$$>+",
"$$$>+",
"$$$,+",
"$$$'+",
"$$$'+",
"$$$)+",
"!!!~+",
"{**]+",
"^/*(+"};
