/* XPM */
static char * close_prelight_xpm[] = {
"21 22 71 1",
" 	c None",
".	c #FBFFFF",
"+	c #E2E0E1",
"@	c #DFDFDF",
"#	c #DEDEDE",
"$	c #DCDCDC",
"%	c #CFCFCF",
"&	c #AFAFAF",
"*	c #A6A6A6",
"=	c #A8A8A8",
"-	c #A9A9A9",
";	c #A3A3A3",
">	c #A7A7A7",
",	c #CECECE",
"'	c #DBDBDB",
")	c #BDBDBD",
"!	c #858585",
"~	c #838383",
"{	c #7F7F7F",
"]	c #848484",
"^	c #828282",
"/	c #818181",
"(	c #C4C4C4",
"_	c #FDFDFD",
":	c #E6E6E6",
"<	c #E0E0E0",
"[	c #E1E1E1",
"}	c #E3E3E3",
"|	c #E2E2E2",
"1	c #FEFEFE",
"2	c #868686",
"3	c #B4B4B4",
"4	c #D9D9D9",
"5	c #B7B7B7",
"6	c #CACACA",
"7	c #C9C9C9",
"8	c #CCCCCC",
"9	c #CBCBCB",
"0	c #808080",
"a	c #B6B6B6",
"b	c #D8D8D8",
"c	c #B8B8B8",
"d	c #D0D0D0",
"e	c #D1D1D1",
"f	c #BABABA",
"g	c #D6D6D6",
"h	c #D7D7D7",
"i	c #D5D5D5",
"j	c #D4D4D4",
"k	c #EBEBEB",
"l	c #E8E8E8",
"m	c #D3D3D3",
"n	c #F2F2F2",
"o	c #F4F4F4",
"p	c #F6F6F6",
"q	c #F7F7F7",
"r	c #F3F3F3",
"s	c #E4E4E4",
"t	c #B5B5B5",
"u	c #FFFFFF",
"v	c #F9F9F9",
"w	c #FCFCFC",
"x	c #FAFAFA",
"y	c #C0C0C0",
"z	c #C7C7C7",
"A	c #C3C3C3",
"B	c #B3B3B3",
"C	c #BBBBBB",
"D	c #EEEEEE",
"E	c #F1F1F1",
"F	c #757575",
".....................",
"+++++++++++++++++++++",
"@@@@@@@@@@@@@@@@@@@@@",
"#####################",
"$$$$%&*=-;**>>-&,$$$$",
"'''')!~{~~]^^/^/(''''",
"'''')^_:<[<<}|123''''",
"44445^|6789696}0a4444",
"bbbbc~<ded%,%e@2fbbbb",
"ggggc^[b4gb4hh}^5gggg",
"iiii5~[|[<[[@}|~ciiii",
"jjjj5^[kkkkkkl<]fjjjj",
"mmmmc]}noppoqrs~tmmmm",
"eeeec0}1uv1wxu@/)eeee",
"%%%%5]<(yz(A(A[]B%%%%",
",,,,5!]/]{/!/~^~C,,,,",
"8888[Dwuu11uw1uE<8888",
"999999999999999999999",
"777777777777777777777",
"ccccccccccccccccccccc",
">>>>>>>>>>>>>>>>>>>>>",
"FFFFFFFFFFFFFFFFFFFFF"};
