/* XPM */
static char * btn_close_un_xpm[] = {
"21 22 56 1",
" 	c None",
".	c #FBFFFF",
"+	c #C9C9C9",
"@	c #A8A8A8",
"#	c #AAAAAA",
"$	c #A6A6A6",
"%	c #A5A5A5",
"&	c #A7A7A7",
"*	c #AEAEAE",
"=	c #ACACAC",
"-	c #F1F1F1",
";	c #E0E0E0",
">	c #DEDEDE",
",	c #DADADA",
"'	c #DFDFDF",
")	c #DDDDDD",
"!	c #D9D9D9",
"~	c #F0F0F0",
"{	c #A9A9A9",
"]	c #CBCBCB",
"^	c #CDCDCD",
"/	c #CECECE",
"(	c #CFCFCF",
"_	c #C8C8C8",
":	c #E1E1E1",
"<	c #E2E2E2",
"[	c #D0D0D0",
"}	c #D2D2D2",
"|	c #D4D4D4",
"1	c #D1D1D1",
"2	c #D3D3D3",
"3	c #DBDBDB",
"4	c #D6D6D6",
"5	c #ABABAB",
"6	c #DCDCDC",
"7	c #E6E6E6",
"8	c #E3E3E3",
"9	c #E5E5E5",
"0	c #E9E9E9",
"a	c #EAEAEA",
"b	c #E8E8E8",
"c	c #EDEDED",
"d	c #ECECEC",
"e	c #EFEFEF",
"f	c #EEEEEE",
"g	c #A4A4A4",
"h	c #CACACA",
"i	c #C6C6C6",
"j	c #D5D5D5",
"k	c #ADADAD",
"l	c #A3A3A3",
"m	c #F5F5F5",
"n	c #F6F6F6",
"o	c #F2F2F2",
"p	c #B8B8B8",
"q	c #757575",
".....................",
"+++++++++++++++++++++",
"+++++++++++++++++++++",
"+++++++++++++++++++++",
"+++++++++++++++++++++",
"+++++@#$$#%&*$=%+++++",
"+++++&-;>,')!;~{+++++",
"+++++$;]^//^(_:&+++++",
"+++++$<[[}|1}23&+++++",
"+++++#,|!2|4||)5+++++",
"+++++&6>36>))36$+++++",
"+++++{';<78;9<,{+++++",
"+++++@60ab70cb3@+++++",
"+++++@'dedfeac<g+++++",
"+++++5}/_+h+i1j=+++++",
"+++++gkg{{%#{l=&+++++",
"+++++amnnnmmnnoc+++++",
"++++]]]]]]]]]]]++++++",
"+++++++++++++++++++++",
"ppppppppppppppppppppp",
"&&&&&&&&&&&&&&&&&&&&&",
"qqqqqqqqqqqqqqqqqqqqq"};
