/* XPM */
static char * close_pressed_xpm[] = {
"21 22 77 1",
" 	c None",
".	c #FBFFFF",
"+	c #E2E0E1",
"@	c #DFDFDF",
"#	c #DEDEDE",
"$	c #DCDCDC",
"%	c #CFCFCF",
"&	c #AFAFAF",
"*	c #A6A6A6",
"=	c #A8A8A8",
"-	c #A9A9A9",
";	c #A3A3A3",
">	c #A7A7A7",
",	c #CECECE",
"'	c #DBDBDB",
")	c #BDBDBD",
"!	c #525252",
"~	c #505050",
"{	c #4C4C4C",
"]	c #515151",
"^	c #4F4F4F",
"/	c #4E4E4E",
"(	c #C4C4C4",
"_	c #CACACA",
":	c #B3B3B3",
"<	c #ADADAD",
"[	c #AEAEAE",
"}	c #B0B0B0",
"|	c #CBCBCB",
"1	c #535353",
"2	c #B4B4B4",
"3	c #D9D9D9",
"4	c #B7B7B7",
"5	c #979797",
"6	c #969696",
"7	c #999999",
"8	c #989898",
"9	c #4D4D4D",
"0	c #B6B6B6",
"a	c #D8D8D8",
"b	c #B8B8B8",
"c	c #9D9D9D",
"d	c #9E9E9E",
"e	c #9C9C9C",
"f	c #9B9B9B",
"g	c #ACACAC",
"h	c #BABABA",
"i	c #D6D6D6",
"j	c #A5A5A5",
"k	c #A4A4A4",
"l	c #D5D5D5",
"m	c #D4D4D4",
"n	c #B5B5B5",
"o	c #D3D3D3",
"p	c #BFBFBF",
"q	c #C1C1C1",
"r	c #C3C3C3",
"s	c #C0C0C0",
"t	c #B1B1B1",
"u	c #D1D1D1",
"v	c #CCCCCC",
"w	c #C6C6C6",
"x	c #C9C9C9",
"y	c #C7C7C7",
"z	c #919191",
"A	c #8D8D8D",
"B	c #949494",
"C	c #909090",
"D	c #BBBBBB",
"E	c #E1E1E1",
"F	c #EEEEEE",
"G	c #FCFCFC",
"H	c #FFFFFF",
"I	c #FEFEFE",
"J	c #F1F1F1",
"K	c #E0E0E0",
"L	c #757575",
".....................",
"+++++++++++++++++++++",
"@@@@@@@@@@@@@@@@@@@@@",
"#####################",
"$$$$%&*=-;**>>-&,$$$$",
"'''')!~{~~]^^/^/(''''",
"'''')^_:<[<<}&|12''''",
"33334^&5678585}903333",
"aaaab~<cdcefedg1haaaa",
"iiiib^[j*;j*kk}^4iiii",
"llll4~[&[<[[g}&~bllll",
"mmmm4^[bbbbbbn<]hmmmm",
"oooob]}pqrrq(st~noooo",
"uuuub9}|vw|xyvg/)uuuu",
"%%%%4]<zABzCzC[]:%%%%",
",,,,4!]/]{/!/~^~D,,,,",
"vvvvEFGHHIIHGIHJKvvvv",
"|||||||||||||||||||||",
"xxxxxxxxxxxxxxxxxxxxx",
"bbbbbbbbbbbbbbbbbbbbb",
">>>>>>>>>>>>>>>>>>>>>",
"LLLLLLLLLLLLLLLLLLLLL"};
