/* XPM */
static char * btn_close_fo_xpm[] = {
"21 22 74 1",
" 	c #FBFFFF",
".	c #E2E0E1",
"+	c #DFDFDF",
"@	c #DEDEDE",
"#	c #DCDCDC",
"$	c #CFCFCF",
"%	c #AFAFAF",
"&	c #A6A6A6",
"*	c #A8A8A8",
"=	c #A9A9A9",
"-	c #A3A3A3",
";	c #A7A7A7",
">	c #CECECE",
",	c #DBDBDB",
"'	c #BDBDBD",
")	c #676767",
"!	c #656565",
"~	c #606060",
"{	c #646464",
"]	c #666666",
"^	c #636363",
"/	c #626262",
"(	c #C4C4C4",
"_	c #FDFDFD",
":	c #E0E0E0",
"<	c #D9D9D9",
"[	c #DADADA",
"}	c #DDDDDD",
"|	c #FEFEFE",
"1	c #686868",
"2	c #B4B4B4",
"3	c #B7B7B7",
"4	c #BCBCBC",
"5	c #C0C0C0",
"6	c #BFBFBF",
"7	c #616161",
"8	c #B6B6B6",
"9	c #D8D8D8",
"0	c #B8B8B8",
"a	c #C5C5C5",
"b	c #C6C6C6",
"c	c #C3C3C3",
"d	c #C2C2C2",
"e	c #D7D7D7",
"f	c #BABABA",
"g	c #D6D6D6",
"h	c #D0D0D0",
"i	c #CCCCCC",
"j	c #CDCDCD",
"k	c #D5D5D5",
"l	c #D4D4D4",
"m	c #E6E6E6",
"n	c #E7E7E7",
"o	c #E3E3E3",
"p	c #D3D3D3",
"q	c #EFEFEF",
"r	c #F2F2F2",
"s	c #F4F4F4",
"t	c #F6F6F6",
"u	c #F1F1F1",
"v	c #B5B5B5",
"w	c #D1D1D1",
"x	c #FFFFFF",
"y	c #F8F8F8",
"z	c #FCFCFC",
"A	c #F9F9F9",
"B	c #B1B1B1",
"C	c #B3B3B3",
"D	c #BBBBBB",
"E	c #E1E1E1",
"F	c #EEEEEE",
"G	c #CBCBCB",
"H	c #C9C9C9",
"I	c #757575",
"                     ",
".....................",
"+++++++++++++++++++++",
"@@@@@@@@@@@@@@@@@@@@@",
"####$%&*=-&&;;=%>####",
",,,,')!~{!]^^/^/(,,,,",
",,,,'^_:<[<<},|12,,,,",
"<<<<3^,'456'6'#78<<<<",
"99990{<abacdcbe1f9999",
"gggg0^[$hi$hj>}^3gggg",
"kkkk3![,[<[[9},{0kkkk",
"llll3^[mnnmmno<]fllll",
"pppp0]#qrssrtu@{vpppp",
"wwww07#|xy|zAx9/'wwww",
"$$$$3]<8Bf8v82[]C$$$$",
">>>>3)]/]~/)/!^{D>>>>",
"iiiiEFzxx||xz|xu:iiii",
"GGGGGGGGGGGGGGGGGGGGG",
"HHHHHHHHHHHHHHHHHHHHH",
"000000000000000000000",
";;;;;;;;;;;;;;;;;;;;;",
"IIIIIIIIIIIIIIIIIIIII"};
