/* XPM */
static char * btn_min_un_xpm[] = {
"21 22 57 1",
" 	c #FBFFFF",
".	c #C9C9C9",
"+	c #A8A8A8",
"@	c #ADADAD",
"#	c #A0A0A0",
"$	c #ABABAB",
"%	c #A7A7A7",
"&	c #AAAAAA",
"*	c #A4A4A4",
"=	c #AEAEAE",
"-	c #A6A6A6",
";	c #F0F0F0",
">	c #DFDFDF",
",	c #DEDEDE",
"'	c #D3D3D3",
")	c #D9D9D9",
"!	c #DADADA",
"~	c #DCDCDC",
"{	c #E0E0E0",
"]	c #EEEEEE",
"^	c #DDDDDD",
"/	c #CBCBCB",
"(	c #CDCDCD",
"_	c #CACACA",
":	c #DBDBDB",
"<	c #CFCFCF",
"[	c #CECECE",
"}	c #B1B1B1",
"|	c #ACACAC",
"1	c #AFAFAF",
"2	c #A9A9A9",
"3	c #D7D7D7",
"4	c #D8D8D8",
"5	c #D4D4D4",
"6	c #D5D5D5",
"7	c #B4B4B4",
"8	c #D6D6D6",
"9	c #E4E4E4",
"0	c #E8E8E8",
"a	c #E1E1E1",
"b	c #E2E2E2",
"c	c #E6E6E6",
"d	c #EBEBEB",
"e	c #E9E9E9",
"f	c #EAEAEA",
"g	c #ECECEC",
"h	c #E5E5E5",
"i	c #C3C3C3",
"j	c #C6C6C6",
"k	c #C4C4C4",
"l	c #C8C8C8",
"m	c #F6F6F6",
"n	c #F7F7F7",
"o	c #F5F5F5",
"p	c #F4F4F4",
"q	c #B8B8B8",
"r	c #757575",
"                     ",
".....................",
".....................",
".....................",
".....................",
".....+@#+$%&**=-.....",
".....$;>,')!~{]+.....",
".....*^./((//_:&.....",
".....%!(<[<<([:-.....",
".....+&}$}$|=12+.....",
".....@3:45^!446$.....",
".....-}|@}$@$=7*.....",
".....+890ab9c{4-.....",
".....%!defeegh4@.....",
".....+3ijkljij)*.....",
".....++&%$-+%2+%.....",
".....dmnoommmmpf.....",
".....///////////.....",
".....................",
"qqqqqqqqqqqqqqqqqqqqq",
"%%%%%%%%%%%%%%%%%%%%%",
"rrrrrrrrrrrrrrrrrrrrr"};
