/* XPM */
static char * btn_min_fo_xpm[] = {
"21 22 73 1",
" 	c #FBFFFF",
".	c #E2E0E1",
"+	c #DFDFDF",
"@	c #DEDEDE",
"#	c #DCDCDC",
"$	c #CCCCCC",
"%	c #B1B1B1",
"&	c #AAAAAA",
"*	c #A5A5A5",
"=	c #A8A8A8",
"-	c #A6A6A6",
";	c #A4A4A4",
">	c #ABABAB",
",	c #B4B4B4",
"'	c #CACACA",
")	c #DBDBDB",
"!	c #C3C3C3",
"~	c #616161",
"{	c #666666",
"]	c #5F5F5F",
"^	c #686868",
"/	c #656565",
"(	c #636363",
"_	c #626262",
":	c #B6B6B6",
"<	c #FFFFFF",
"[	c #D5D5D5",
"}	c #DDDDDD",
"|	c #D9D9D9",
"1	c #DADADA",
"2	c #FDFDFD",
"3	c #676767",
"4	c #B5B5B5",
"5	c #B7B7B7",
"6	c #BDBDBD",
"7	c #BFBFBF",
"8	c #BCBCBC",
"9	c #BEBEBE",
"0	c #B9B9B9",
"a	c #D8D8D8",
"b	c #B8B8B8",
"c	c #C6C6C6",
"d	c #C5C5C5",
"e	c #C4C4C4",
"f	c #D6D6D6",
"g	c #828282",
"h	c #838383",
"i	c #7F7F7F",
"j	c #D4D4D4",
"k	c #BBBBBB",
"l	c #848484",
"m	c #808080",
"n	c #818181",
"o	c #7D7D7D",
"p	c #868686",
"q	c #D3D3D3",
"r	c #D7D7D7",
"s	c #F5F5F5",
"t	c #F2F2F2",
"u	c #F1F1F1",
"v	c #D1D1D1",
"w	c #FEFEFE",
"x	c #FAFAFA",
"y	c #CFCFCF",
"z	c #B3B3B3",
"A	c #CECECE",
"B	c #646464",
"C	c #BABABA",
"D	c #F9F9F9",
"E	c #CBCBCB",
"F	c #C9C9C9",
"G	c #A7A7A7",
"H	c #757575",
"                     ",
".....................",
"+++++++++++++++++++++",
"@@@@@@@@@@@@@@@@@@@@@",
"####$%&*=*-;>;*,'####",
"))))!~{]^/((_//~!))))",
")))):_<@[)#}|1234))))",
"||||5/|6789867)~0||||",
"aaaab/}!cdec!c@~5aaaa",
"ffffb(ghhghghig^5ffff",
"[[[[b/|)|}a))a}/5[[[[",
"jjjjk_lmnopnngi_0jjjj",
"qqqq4(rsttttus#{,qqqq",
"vvvv5^+w222<wx)/0vvvv",
"yyyy6/v055zzbbr{0yyyy",
"AAAA5/^(B({{B(3~CAAAA",
"$$$$@u<x<<<D<<<t@$$$$",
"EEEEEEEEEEEEEEEEEEEEE",
"FFFFFFFFFFFFFFFFFFFFF",
"bbbbbbbbbbbbbbbbbbbbb",
"GGGGGGGGGGGGGGGGGGGGG",
"HHHHHHHHHHHHHHHHHHHHH"};
