/* XPM */
static char * hide_pressed_xpm[] = {
"21 22 79 1",
" 	c None",
".	c #FBFFFF",
"+	c #E2E0E1",
"@	c #DFDFDF",
"#	c #DEDEDE",
"$	c #DCDCDC",
"%	c #CCCCCC",
"&	c #B1B1B1",
"*	c #AAAAAA",
"=	c #A5A5A5",
"-	c #A8A8A8",
";	c #A6A6A6",
">	c #A4A4A4",
",	c #ABABAB",
"'	c #B4B4B4",
")	c #CACACA",
"!	c #DBDBDB",
"~	c #C3C3C3",
"{	c #4D4D4D",
"]	c #515151",
"^	c #4C4C4C",
"/	c #535353",
"(	c #505050",
"_	c #4F4F4F",
":	c #4E4E4E",
"<	c #B6B6B6",
"[	c #AFAFAF",
"}	c #B0B0B0",
"|	c #ADADAD",
"1	c #AEAEAE",
"2	c #525252",
"3	c #B5B5B5",
"4	c #D9D9D9",
"5	c #B7B7B7",
"6	c #979797",
"7	c #989898",
"8	c #969696",
"9	c #B9B9B9",
"0	c #D8D8D8",
"a	c #B8B8B8",
"b	c #9C9C9C",
"c	c #9E9E9E",
"d	c #9D9D9D",
"e	c #D6D6D6",
"f	c #686868",
"g	c #656565",
"h	c #D5D5D5",
"i	c #ACACAC",
"j	c #D4D4D4",
"k	c #BBBBBB",
"l	c #696969",
"m	c #666666",
"n	c #676767",
"o	c #646464",
"p	c #6B6B6B",
"q	c #D3D3D3",
"r	c #C4C4C4",
"s	c #C1C1C1",
"t	c #C0C0C0",
"u	c #D1D1D1",
"v	c #B2B2B2",
"w	c #CBCBCB",
"x	c #C8C8C8",
"y	c #CFCFCF",
"z	c #BDBDBD",
"A	c #A7A7A7",
"B	c #949494",
"C	c #929292",
"D	c #8F8F8F",
"E	c #939393",
"F	c #CECECE",
"G	c #BABABA",
"H	c #F1F1F1",
"I	c #FFFFFF",
"J	c #FAFAFA",
"K	c #F9F9F9",
"L	c #F2F2F2",
"M	c #C9C9C9",
"N	c #757575",
".....................",
"+++++++++++++++++++++",
"@@@@@@@@@@@@@@@@@@@@@",
"#####################",
"$$$$%&*=-=;>,>=')$$$$",
"!!!!~{]^/(__:(({~!!!!",
"!!!!<:%&*[}}|1)23!!!!",
"44445(|6787867[{94444",
"0000a(}bcdbcbc&{50000",
"eeeea_fffffffgf/5eeee",
"hhhha(|[|}i[[i}(5hhhh",
"jjjjk:lmnopnnfg:9jjjj",
"qqqq3_irsssstr}]'qqqq",
"uuuu5/vw)))%wx[(9uuuu",
"yyyyz(ABCCDDEEi]9yyyy",
"FFFF5(/_(_]](_2{GFFFF",
"%%%%#HIJIIIKIIIL#%%%%",
"wwwwwwwwwwwwwwwwwwwww",
"MMMMMMMMMMMMMMMMMMMMM",
"aaaaaaaaaaaaaaaaaaaaa",
"AAAAAAAAAAAAAAAAAAAAA",
"NNNNNNNNNNNNNNNNNNNNN"};
