/* XPM */
static char * hide_prelight_xpm[] = {
"21 22 78 1",
" 	c None",
".	c #FBFFFF",
"+	c #E2E0E1",
"@	c #DFDFDF",
"#	c #DEDEDE",
"$	c #DCDCDC",
"%	c #CCCCCC",
"&	c #B1B1B1",
"*	c #AAAAAA",
"=	c #A5A5A5",
"-	c #A8A8A8",
";	c #A6A6A6",
">	c #A4A4A4",
",	c #ABABAB",
"'	c #B4B4B4",
")	c #CACACA",
"!	c #DBDBDB",
"~	c #C3C3C3",
"{	c #808080",
"]	c #848484",
"^	c #7F7F7F",
"/	c #868686",
"(	c #838383",
"_	c #828282",
":	c #818181",
"<	c #B6B6B6",
"[	c #FFFFFF",
"}	c #E4E4E4",
"|	c #DDDDDD",
"1	c #E2E2E2",
"2	c #E3E3E3",
"3	c #E0E0E0",
"4	c #E1E1E1",
"5	c #FDFDFD",
"6	c #858585",
"7	c #B5B5B5",
"8	c #D9D9D9",
"9	c #B7B7B7",
"0	c #CBCBCB",
"a	c #C9C9C9",
"b	c #B9B9B9",
"c	c #D8D8D8",
"d	c #B8B8B8",
"e	c #CFCFCF",
"f	c #D1D1D1",
"g	c #D0D0D0",
"h	c #D6D6D6",
"i	c #9B9B9B",
"j	c #989898",
"k	c #D5D5D5",
"l	c #D4D4D4",
"m	c #BBBBBB",
"n	c #9C9C9C",
"o	c #999999",
"p	c #9A9A9A",
"q	c #979797",
"r	c #9E9E9E",
"s	c #D3D3D3",
"t	c #F7F7F7",
"u	c #F4F4F4",
"v	c #F3F3F3",
"w	c #E5E5E5",
"x	c #FEFEFE",
"y	c #FBFBFB",
"z	c #BDBDBD",
"A	c #DADADA",
"B	c #C7C7C7",
"C	c #C5C5C5",
"D	c #C2C2C2",
"E	c #C6C6C6",
"F	c #CECECE",
"G	c #BABABA",
"H	c #F1F1F1",
"I	c #FAFAFA",
"J	c #F9F9F9",
"K	c #F2F2F2",
"L	c #A7A7A7",
"M	c #757575",
".....................",
"+++++++++++++++++++++",
"@@@@@@@@@@@@@@@@@@@@@",
"#####################",
"$$$$%&*=-=;>,>=')$$$$",
"!!!!~{]^/(__:(({~!!!!",
"!!!!<:[}|12234567!!!!",
"88889(3)0a0a)01{b8888",
"ccccd(2efgefef}{9cccc",
"hhhhd_iiiiiiiji/9hhhh",
"kkkkd(3132@11@2(9kkkk",
"llllm:nopqrppij:bllll",
"ssss7_@tuuuuvt2]'ssss",
"ffff9/wx555[xy1(bffff",
"eeeez(ABCCDDEE@]beeee",
"FFFF9(/_(_]](_6{GFFFF",
"%%%%#H[I[[[J[[[K#%%%%",
"000000000000000000000",
"aaaaaaaaaaaaaaaaaaaaa",
"ddddddddddddddddddddd",
"LLLLLLLLLLLLLLLLLLLLL",
"MMMMMMMMMMMMMMMMMMMMM"};
