/* XPM */
static char * btn_max_fo_xpm[] = {
"20 22 78 1",
" 	c #FBFFFF",
".	c #E2E0E1",
"+	c #DFDFDF",
"@	c #DEDEDE",
"#	c #DCDCDC",
"$	c #CBCBCB",
"%	c #B1B1B1",
"&	c #ABABAB",
"*	c #A7A7A7",
"=	c #A4A4A4",
"-	c #AAAAAA",
";	c #A8A8A8",
">	c #A6A6A6",
",	c #B5B5B5",
"'	c #C8C8C8",
")	c #DBDBDB",
"!	c #C2C2C2",
"~	c #636363",
"{	c #606060",
"]	c #666666",
"^	c #646464",
"/	c #676767",
"(	c #BFBFBF",
"_	c #B4B4B4",
":	c #6A6A6A",
"<	c #FAFAFA",
"[	c #D7D7D7",
"}	c #838383",
"|	c #DDDDDD",
"1	c #B7B7B7",
"2	c #D9D9D9",
"3	c #BDBDBD",
"4	c #5C5C5C",
"5	c #BABABA",
"6	c #BEBEBE",
"7	c #828282",
"8	c #B9B9B9",
"9	c #BCBCBC",
"0	c #E0E0E0",
"a	c #D8D8D8",
"b	c #C5C5C5",
"c	c #C6C6C6",
"d	c #C3C3C3",
"e	c #D6D6D6",
"f	c #CFCFCF",
"g	c #CDCDCD",
"h	c #818181",
"i	c #CCCCCC",
"j	c #626262",
"k	c #D5D5D5",
"l	c #808080",
"m	c #DADADA",
"n	c #B8B8B8",
"o	c #D4D4D4",
"p	c #858585",
"q	c #E6E6E6",
"r	c #E9E9E9",
"s	c #656565",
"t	c #D3D3D3",
"u	c #F4F4F4",
"v	c #F1F1F1",
"w	c #F2F2F2",
"x	c #F3F3F3",
"y	c #D1D1D1",
"z	c #FCFCFC",
"A	c #FFFFFF",
"B	c #FEFEFE",
"C	c #B6B6B6",
"D	c #BBBBBB",
"E	c #CECECE",
"F	c #616161",
"G	c #6D6D6D",
"H	c #686868",
"I	c #EEEEEE",
"J	c #FDFDFD",
"K	c #FBFBFB",
"L	c #C9C9C9",
"M	c #757575",
"                    ",
"....................",
"++++++++++++++++++++",
"@@@@@@@@@@@@@@@@@@@@",
"####$%&*=*-=;>=,'###",
"))))!~{]^]{]~^^/()))",
"))))_:<@#[#})|<]1)))",
"222234|56367890{8222",
"aaaa8~@!bcb7'd[/,aaa",
"eeee1]afggghi$|j8eee",
"kkkk1~|e#[#lm[|^nkkk",
"oooo5~7lpll}qr2s8ooo",
"ttttns[uvuwwxv|s1ttt",
"yyyy1j+zAzzzzB[~8yyy",
"ffffC:e%C_1CC_@jDfff",
"EEEE(F~Gj~]^~jHj9EEE",
"iiii@IA<JAKBJAzw+iii",
"$$$$$$$$$$$$$$$$$$$$",
"LLLLLLLLLLLLLLLLLLLL",
"nnnnnnnnnnnnnnnnnnnn",
"********************",
"MMMMMMMMMMMMMMMMMMMM"};
