/* XPM */
static char * maximize_prelight_xpm[] = {
"20 22 84 1",
" 	c None",
".	c #FBFFFF",
"+	c #E2E0E1",
"@	c #DFDFDF",
"#	c #DEDEDE",
"$	c #DCDCDC",
"%	c #CBCBCB",
"&	c #B1B1B1",
"*	c #ABABAB",
"=	c #A7A7A7",
"-	c #A4A4A4",
";	c #AAAAAA",
">	c #A8A8A8",
",	c #A6A6A6",
"'	c #B5B5B5",
")	c #C8C8C8",
"!	c #DBDBDB",
"~	c #C2C2C2",
"{	c #828282",
"]	c #7F7F7F",
"^	c #848484",
"/	c #838383",
"(	c #858585",
"_	c #BFBFBF",
":	c #B4B4B4",
"<	c #878787",
"[	c #FBFBFB",
"}	c #E4E4E4",
"|	c #E3E3E3",
"1	c #9B9B9B",
"2	c #E2E2E2",
"3	c #B7B7B7",
"4	c #D9D9D9",
"5	c #BDBDBD",
"6	c #7C7C7C",
"7	c #C7C7C7",
"8	c #CACACA",
"9	c #C9C9C9",
"0	c #E6E6E6",
"a	c #B9B9B9",
"b	c #D8D8D8",
"c	c #CECECE",
"d	c #D0D0D0",
"e	c #D1D1D1",
"f	c #D3D3D3",
"g	c #CFCFCF",
"h	c #D6D6D6",
"i	c #D7D7D7",
"j	c #9A9A9A",
"k	c #D5D5D5",
"l	c #818181",
"m	c #999999",
"n	c #E1E1E1",
"o	c #B8B8B8",
"p	c #D4D4D4",
"q	c #BABABA",
"r	c #9D9D9D",
"s	c #EBEBEB",
"t	c #EDEDED",
"u	c #E0E0E0",
"v	c #F6F6F6",
"w	c #F3F3F3",
"x	c #F4F4F4",
"y	c #F5F5F5",
"z	c #E5E5E5",
"A	c #FCFCFC",
"B	c #FFFFFF",
"C	c #FEFEFE",
"D	c #B6B6B6",
"E	c #C0C0C0",
"F	c #C4C4C4",
"G	c #C3C3C3",
"H	c #C5C5C5",
"I	c #BBBBBB",
"J	c #808080",
"K	c #8A8A8A",
"L	c #868686",
"M	c #BCBCBC",
"N	c #CCCCCC",
"O	c #EEEEEE",
"P	c #FAFAFA",
"Q	c #FDFDFD",
"R	c #F2F2F2",
"S	c #757575",
"....................",
"++++++++++++++++++++",
"@@@@@@@@@@@@@@@@@@@@",
"####################",
"$$$$%&*=-=;->,-')$$$",
"!!!!~{]^/^]^{//(_!!!",
"!!!!:<[}|@|12|[^3!!!",
"444456|7%8%1790]a444",
"bbbba{}cded1fg@('bbb",
"hhhh3^@biiijhk|lahhh",
"kkkk3{|#|@|mn@|/okkk",
"ppppq{1mrmm1stu/appp",
"ffffo/@vwvxxyw|/3fff",
"eeee3lzABAAAAC@{aeee",
"ggggD<#EFGHFFG}lIggg",
"cccc_J{Kl{^/{lLlMccc",
"NNNN#OBPQB[CQBAR@NNN",
"%%%%%%%%%%%%%%%%%%%%",
"99999999999999999999",
"oooooooooooooooooooo",
"====================",
"SSSSSSSSSSSSSSSSSSSS"};
