/* XPM */
static char * btn_max_un_xpm[] = {
"20 22 56 1",
" 	c #FBFFFF",
".	c #C9C9C9",
"+	c #ACACAC",
"@	c #A5A5A5",
"#	c #A6A6A6",
"$	c #AAAAAA",
"%	c #A8A8A8",
"&	c #A0A0A0",
"*	c #AEAEAE",
"=	c #A4A4A4",
"-	c #F6F6F6",
";	c #DDDDDD",
">	c #D8D8D8",
",	c #DADADA",
"'	c #B5B5B5",
")	c #D4D4D4",
"!	c #DCDCDC",
"~	c #F3F3F3",
"{	c #A7A7A7",
"]	c #D9D9D9",
"^	c #CBCBCB",
"/	c #CDCDCD",
"(	c #CCCCCC",
"_	c #CECECE",
":	c #DBDBDB",
"<	c #A9A9A9",
"[	c #D1D1D1",
"}	c #D2D2D2",
"|	c #D5D5D5",
"1	c #CFCFCF",
"2	c #D3D3D3",
"3	c #D7D7D7",
"4	c #AFAFAF",
"5	c #ADADAD",
"6	c #ABABAB",
"7	c #DFDFDF",
"8	c #DEDEDE",
"9	c #D6D6D6",
"0	c #E6E6E6",
"a	c #E5E5E5",
"b	c #E1E1E1",
"c	c #E3E3E3",
"d	c #E4E4E4",
"e	c #E8E8E8",
"f	c #ECECEC",
"g	c #EAEAEA",
"h	c #EDEDED",
"i	c #EBEBEB",
"j	c #CACACA",
"k	c #C4C4C4",
"l	c #C6C6C6",
"m	c #C1C1C1",
"n	c #C7C7C7",
"o	c #F5F5F5",
"p	c #B8B8B8",
"q	c #757575",
"                    ",
"....................",
"....................",
"....................",
"....................",
".....+@#$%$&*=%=....",
".....%-;>,>')!~$....",
".....{]^//(%_^:#....",
".....<][_}(*__,$....",
".....{]|1234[|:#....",
".....<>3!:)+,3,{....",
".....{5+*6*+78><....",
".....<90abcbad9{....",
".....{]aefgh0i!@....",
".....%)jklmlnl)+....",
".....<{<%{6@<%%@....",
".....i--oo----oh....",
"....^^^^^^^^^^^^....",
"....................",
"pppppppppppppppppppp",
"{{{{{{{{{{{{{{{{{{{{",
"qqqqqqqqqqqqqqqqqqqq"};
