/* XPM */
static char * maximize_pressed_xpm[] = {
"20 22 89 1",
" 	c None",
".	c #FBFFFF",
"+	c #E2E0E1",
"@	c #DFDFDF",
"#	c #DEDEDE",
"$	c #DCDCDC",
"%	c #CBCBCB",
"&	c #B1B1B1",
"*	c #ABABAB",
"=	c #A7A7A7",
"-	c #A4A4A4",
";	c #AAAAAA",
">	c #A8A8A8",
",	c #A6A6A6",
"'	c #B5B5B5",
")	c #C8C8C8",
"!	c #DBDBDB",
"~	c #C2C2C2",
"{	c #4F4F4F",
"]	c #4C4C4C",
"^	c #515151",
"/	c #505050",
"(	c #525252",
"_	c #BFBFBF",
":	c #B4B4B4",
"<	c #545454",
"[	c #B0B0B0",
"}	c #ACACAC",
"|	c #686868",
"1	c #AFAFAF",
"2	c #B7B7B7",
"3	c #D9D9D9",
"4	c #BDBDBD",
"5	c #494949",
"6	c #949494",
"7	c #989898",
"8	c #979797",
"9	c #969696",
"0	c #B3B3B3",
"a	c #B9B9B9",
"b	c #D8D8D8",
"c	c #9B9B9B",
"d	c #9D9D9D",
"e	c #9E9E9E",
"f	c #A0A0A0",
"g	c #9C9C9C",
"h	c #D6D6D6",
"i	c #A5A5A5",
"j	c #676767",
"k	c #A3A3A3",
"l	c #A2A2A2",
"m	c #4E4E4E",
"n	c #D5D5D5",
"o	c #666666",
"p	c #AEAEAE",
"q	c #B8B8B8",
"r	c #D4D4D4",
"s	c #BABABA",
"t	c #6A6A6A",
"u	c #ADADAD",
"v	c #D3D3D3",
"w	c #C3C3C3",
"x	c #C0C0C0",
"y	c #C1C1C1",
"z	c #D1D1D1",
"A	c #B2B2B2",
"B	c #C9C9C9",
"C	c #CCCCCC",
"D	c #CFCFCF",
"E	c #B6B6B6",
"F	c #8D8D8D",
"G	c #919191",
"H	c #909090",
"I	c #929292",
"J	c #BBBBBB",
"K	c #CECECE",
"L	c #4D4D4D",
"M	c #575757",
"N	c #535353",
"O	c #BCBCBC",
"P	c #EEEEEE",
"Q	c #FFFFFF",
"R	c #FAFAFA",
"S	c #FDFDFD",
"T	c #FBFBFB",
"U	c #FEFEFE",
"V	c #FCFCFC",
"W	c #F2F2F2",
"X	c #757575",
"....................",
"++++++++++++++++++++",
"@@@@@@@@@@@@@@@@@@@@",
"####################",
"$$$$%&*=-=;->,-')$$$",
"!!!!~{]^/^]^{//(_!!!",
"!!!!:<)&[}[|1[)^2!!!",
"333345[6787|690]a333",
"bbbba{&cded|fg}('bbb",
"hhhh2^}i---jkl[mahhh",
"nnnn2{[*[}[op}[/qnnn",
"rrrrs{|otoo|qsu/arrr",
"vvvvq/}wxwyy~x[/2vvv",
"zzzz2mABCBBBB%}{azzz",
"DDDDE<*FGHIGGH&mJDDD",
"KKKK_L{Mm{^/{mNmOKKK",
"CCCC#PQRSQTUSQVW@CCC",
"%%%%%%%%%%%%%%%%%%%%",
"BBBBBBBBBBBBBBBBBBBB",
"qqqqqqqqqqqqqqqqqqqq",
"====================",
"XXXXXXXXXXXXXXXXXXXX"};
