/* XPM */
static char * menu_pressed_xpm[] = {
"26 22 84 1",
" 	c None",
".	c #FBFFFF",
"+	c #E2E0E1",
"@	c #DFDFDF",
"#	c #DEDEDE",
"$	c #DCDCDC",
"%	c #DBDBDB",
"&	c #CBC9CA",
"*	c #B6B4B5",
"=	c #A9A7A8",
"-	c #A6A4A5",
";	c #A8A6A7",
">	c #A7A5A6",
",	c #CAC8C9",
"'	c #D9D9D9",
")	c #C1C1C1",
"!	c #696969",
"~	c #606060",
"{	c #666666",
"]	c #646464",
"^	c #636363",
"/	c #676767",
"(	c #C0C0C0",
"_	c #D8D8D8",
":	c #B9B9B9",
"<	c #5F5F5F",
"[	c #CCCCCC",
"}	c #A1A1A1",
"|	c #A4A4A4",
"1	c #A0A0A0",
"2	c #A3A3A3",
"3	c #616161",
"4	c #B8B8B8",
"5	c #D6D6D6",
"6	c #B7B7B7",
"7	c #A6A6A6",
"8	c #909090",
"9	c #8E8E8E",
"0	c #919191",
"a	c #939393",
"b	c #9F9F9F",
"c	c #B6B6B6",
"d	c #D5D5D5",
"e	c #626262",
"f	c #A2A2A2",
"g	c #979797",
"h	c #9A9A9A",
"i	c #969696",
"j	c #989898",
"k	c #D4D4D4",
"l	c #BDBDBD",
"m	c #656565",
"n	c #9E9E9E",
"o	c #BBBBBB",
"p	c #D3D3D3",
"q	c #B3B3B3",
"r	c #A7A7A7",
"s	c #A8A8A8",
"t	c #AAAAAA",
"u	c #ABABAB",
"v	c #A9A9A9",
"w	c #A5A5A5",
"x	c #5C5C5C",
"y	c #BABABA",
"z	c #D1D1D1",
"A	c #BEBEBE",
"B	c #B1B1B1",
"C	c #B2B2B2",
"D	c #B4B4B4",
"E	c #CFCFCF",
"F	c #858585",
"G	c #868686",
"H	c #848484",
"I	c #CECECE",
"J	c #686868",
"K	c #ECECEC",
"L	c #FFFFFF",
"M	c #FBFBFB",
"N	c #FDFDFD",
"O	c #EEEEEE",
"P	c #E0E0E0",
"Q	c #CBCBCB",
"R	c #C9C9C9",
"S	c #757575",
"..........................",
"++++++++++++++++++++++++++",
"@@@@@@@@@@@@@@@@@@@@@@@@@@",
"##########################",
"$$$$$$$$$$$$$$$$$$$$$$$$$$",
"%%%%%%%%%%%%%%%%%%%%%%%%%%",
"%%%&*=-;;>>>>>>>>>=-;*,%%%",
"''')!~{]^]]]]]]]]]^{~/('''",
"___:<[}}|122222222|2[34___",
"5556]78908888888889ab{c555",
"ddd6efghijjjjjjjjjjg2{cddd",
"kkklm211}n11111111fn2eokkk",
"pppq]|rstuvvvvvvvvwtrxyppp",
"zzzAmbcBCCBBBBBBBBDD}m6zzz",
"EEEc]fFGGHFFFFFFFFHG}{4EEE",
"III4Je]e{{^^^^^^^^^{</:III",
"[[[@KLLLMNLLLLLLLLNLLOP[[[",
"QQQQQQQQQQQQQQQQQQQQQQQQQQ",
"RRRRRRRRRRRRRRRRRRRRRRRRRR",
"44444444444444444444444444",
"rrrrrrrrrrrrrrrrrrrrrrrrrr",
"SSSSSSSSSSSSSSSSSSSSSSSSSS"};
