/* XPM */
static char * btn_special_fo_xpm[] = {
"26 22 72 1",
" 	c #FBFFFF",
".	c #E2E0E1",
"+	c #DFDFDF",
"@	c #DEDEDE",
"#	c #DCDCDC",
"$	c #DBDBDB",
"%	c #CBC9CA",
"&	c #B6B4B5",
"*	c #A9A7A8",
"=	c #A6A4A5",
"-	c #A8A6A7",
";	c #A7A5A6",
">	c #CAC8C9",
",	c #D9D9D9",
"'	c #C1C1C1",
")	c #696969",
"!	c #606060",
"~	c #666666",
"{	c #646464",
"]	c #636363",
"^	c #676767",
"/	c #C0C0C0",
"(	c #D8D8D8",
"_	c #B9B9B9",
":	c #5F5F5F",
"<	c #FFFFFF",
"[	c #CACACA",
"}	c #CDCDCD",
"|	c #C9C9C9",
"1	c #CCCCCC",
"2	c #616161",
"3	c #B8B8B8",
"4	c #D6D6D6",
"5	c #B7B7B7",
"6	c #D0D0D0",
"7	c #B4B4B4",
"8	c #B2B2B2",
"9	c #B6B6B6",
"0	c #B5B5B5",
"a	c #C7C7C7",
"b	c #D5D5D5",
"c	c #626262",
"d	c #CBCBCB",
"e	c #BDBDBD",
"f	c #BCBCBC",
"g	c #BEBEBE",
"h	c #BFBFBF",
"i	c #D4D4D4",
"j	c #656565",
"k	c #C8C8C8",
"l	c #C6C6C6",
"m	c #BBBBBB",
"n	c #D3D3D3",
"o	c #B3B3B3",
"p	c #D1D1D1",
"q	c #D2D2D2",
"r	c #CFCFCF",
"s	c #5C5C5C",
"t	c #BABABA",
"u	c #E4E4E4",
"v	c #E1E1E1",
"w	c #A7A7A7",
"x	c #A8A8A8",
"y	c #A6A6A6",
"z	c #CECECE",
"A	c #686868",
"B	c #ECECEC",
"C	c #FBFBFB",
"D	c #FDFDFD",
"E	c #EEEEEE",
"F	c #E0E0E0",
"G	c #757575",
"                          ",
"..........................",
"++++++++++++++++++++++++++",
"@@@@@@@@@@@@@@@@@@@@@@@@@@",
"##########################",
"$$$$$$$$$$$$$$$$$$$$$$$$$$",
"$$$%&*=--;;;;;;;;;*=-&>$$$",
",,,')!~{]{{{{{{{{{]~!^/,,,",
"(((_:<[[}|11111111}1<23(((",
"4445{678900000000083a~9444",
"bbb5cde'fggggggggghe1~9bbb",
"iiiej1|k[l||||||||dl1cmiii",
"nnno{}pqb4iiiiiiiirbpstnnn",
"pppgjau@++@@@@@@@@vv[j5ppp",
"rrr9{dwxxywwwwwwwwyx[~3rrr",
"zzz3Ac{c~~]]]]]]]]]~:^_zzz",
"111+B<<<CD<<<<<<<<D<<EF111",
"dddddddddddddddddddddddddd",
"||||||||||||||||||||||||||",
"33333333333333333333333333",
"wwwwwwwwwwwwwwwwwwwwwwwwww",
"GGGGGGGGGGGGGGGGGGGGGGGGGG"};
