/* XPM */
static char * menu_prelight_xpm[] = {
"26 22 70 1",
" 	c None",
".	c #FBFFFF",
"+	c #E2E0E1",
"@	c #DFDFDF",
"#	c #DEDEDE",
"$	c #DCDCDC",
"%	c #DBDBDB",
"&	c #CBC9CA",
"*	c #B6B4B5",
"=	c #A9A7A8",
"-	c #A6A4A5",
";	c #A8A6A7",
">	c #A7A5A6",
",	c #CAC8C9",
"'	c #D9D9D9",
")	c #C1C1C1",
"!	c #696969",
"~	c #606060",
"{	c #666666",
"]	c #646464",
"^	c #636363",
"/	c #676767",
"(	c #C0C0C0",
"_	c #D8D8D8",
":	c #B9B9B9",
"<	c #5F5F5F",
"[	c #FFFFFF",
"}	c #D4D4D4",
"|	c #D7D7D7",
"1	c #D3D3D3",
"2	c #D6D6D6",
"3	c #616161",
"4	c #B8B8B8",
"5	c #B7B7B7",
"6	c #C3C3C3",
"7	c #C4C4C4",
"8	c #C6C6C6",
"9	c #D2D2D2",
"0	c #B6B6B6",
"a	c #D5D5D5",
"b	c #626262",
"c	c #CACACA",
"d	c #CDCDCD",
"e	c #C9C9C9",
"f	c #CBCBCB",
"g	c #BDBDBD",
"h	c #656565",
"i	c #D1D1D1",
"j	c #BBBBBB",
"k	c #B3B3B3",
"l	c #DADADA",
"m	c #DDDDDD",
"n	c #5C5C5C",
"o	c #BABABA",
"p	c #BEBEBE",
"q	c #E9E9E9",
"r	c #E4E4E4",
"s	c #E5E5E5",
"t	c #E7E7E7",
"u	c #CFCFCF",
"v	c #CECECE",
"w	c #686868",
"x	c #CCCCCC",
"y	c #ECECEC",
"z	c #FBFBFB",
"A	c #FDFDFD",
"B	c #EEEEEE",
"C	c #E0E0E0",
"D	c #A7A7A7",
"E	c #757575",
"..........................",
"++++++++++++++++++++++++++",
"@@@@@@@@@@@@@@@@@@@@@@@@@@",
"##########################",
"$$$$$$$$$$$$$$$$$$$$$$$$$$",
"%%%%%%%%%%%%%%%%%%%%%%%%%%",
"%%%&*=-;;>>>>>>>>>=-;*,%%%",
"''')!~{]^]]]]]]]]]^{~/('''",
"___:<[}}|122222222|2[34___",
"2225]'6)7666666666)89{0222",
"aaa5bacdeffffffffffc2{0aaa",
"}}}gh211}i11111111ai2bj}}}",
"111k]|l%m#$$$$$$$$_mlno111",
"iiiph9qrssrrrrrrrrtt}h5iii",
"uuu0]a4::5444444445:}{4uuu",
"vvv4wb]b{{^^^^^^^^^{</:vvv",
"xxx@y[[[zA[[[[[[[[A[[BCxxx",
"ffffffffffffffffffffffffff",
"eeeeeeeeeeeeeeeeeeeeeeeeee",
"44444444444444444444444444",
"DDDDDDDDDDDDDDDDDDDDDDDDDD",
"EEEEEEEEEEEEEEEEEEEEEEEEEE"};
