/* XPM */
static char * btn_special_un_xpm[] = {
"26 22 37 1",
" 	c #FBFFFF",
".	c #C9C9C9",
"+	c #A8A8A8",
"@	c #A6A6A6",
"#	c #A9A9A9",
"$	c #A7A7A7",
"%	c #F0F0F0",
"&	c #DDDDDD",
"*	c #D8D8D8",
"=	c #DCDCDC",
"-	c #DBDBDB",
";	c #D9D9D9",
">	c #CDCDCD",
",	c #CCCCCC",
"'	c #CECECE",
")	c #D0D0D0",
"!	c #D4D4D4",
"~	c #D7D7D7",
"{	c #D5D5D5",
"]	c #D1D1D1",
"^	c #DADADA",
"/	c #D6D6D6",
"(	c #DFDFDF",
"_	c #DEDEDE",
":	c #E3E3E3",
"<	c #E1E1E1",
"[	c #E2E2E2",
"}	c #C8C8C8",
"|	c #C4C4C4",
"1	c #C7C7C7",
"2	c #C5C5C5",
"3	c #E9E9E9",
"4	c #F1F1F1",
"5	c #EAEAEA",
"6	c #CBCBCB",
"7	c #B8B8B8",
"8	c #757575",
"                          ",
"..........................",
"..........................",
"..........................",
"..........................",
"..........................",
"..........................",
"....++@+++#$##$#+++@++....",
"....$%&*=-;;--;;-=*&%$....",
"....@->,',')>>)',',>-$....",
"....+*!~{]!!))!!]{~!*$....",
"....+^/{{~~/^^/~~{{/^+....",
"....@^&(=&&^__^&&=(&^@....",
"....+;(:<<:<[[<:<<:(;+....",
"....$/}|112|11|211|}/+....",
"....#+++++++++++++++++....",
"....344444%%%4444%%%%5....",
"....6666666666666666666...",
"..........................",
"77777777777777777777777777",
"$$$$$$$$$$$$$$$$$$$$$$$$$$",
"88888888888888888888888888"};
