/* XPM */
static char * title_1_inactive_xpm[] = {
"2 23 6 1",
" 	c None",
".	c #757575",
"+	c #FBFFFF",
"@	c #C9C9C9",
"#	c #B8B8B8",
"$	c #A7A7A7",
"..",
"++",
"@@",
"@@",
"@@",
"@@",
"@@",
"@@",
"@@",
"@@",
"@@",
"@@",
"@@",
"@@",
"@@",
"@@",
"@@",
"@@",
"@@",
"@@",
"##",
"$$",
".."};
