/* XPM */
static char * tr_un_xpm[] = {
"5 23 19 1",
" 	c #757575",
".	c #FBFFFF",
"+	c #C9C9C9",
"@	c #C4B9B5",
"#	c #BABABC",
"$	c #B9B9B9",
"%	c #B8B8B8",
"&	c #B7B7B7",
"*	c #B6B6B6",
"=	c #BAB6B5",
"-	c #B9B5B6",
";	c #B8B6B9",
">	c #B9B7BA",
",	c #B7B6BB",
"'	c #BBBBB9",
")	c #B5B5B3",
"!	c #A7A7A7",
"~	c #A4A4A2",
"{	c #E7E7E7",
"     ",
".... ",
"+++@ ",
"+++# ",
"+++$ ",
"+++% ",
"+++% ",
"+++$ ",
"+++$ ",
"+++& ",
"+++* ",
"+++= ",
"+++- ",
"+++- ",
"+++- ",
"+++; ",
"+++> ",
"+++> ",
"+++, ",
"+++' ",
"%%%) ",
"!%%~ ",
" {%! "};
